<?xml version="1.0" encoding="iso-8859-1"?>
<!-- Generator: Adobe Illustrator 19.0.0, SVG Export Plug-In . SVG Version: 6.00 Build 0)  -->
<svg version="1.1" id="Layer_1" xmlns="http://www.w3.org/2000/svg" xmlns:xlink="http://www.w3.org/1999/xlink" x="0px" y="0px"
	 viewBox="0 0 453.986 453.986" style="enable-background:new 0 0 453.986 453.986;" xml:space="preserve">
<g>
	<path d="M104.493,226.993c0,18.508,4.131,36.067,11.512,51.812l47.331-115.468l115.468-47.331
		c-15.745-7.381-33.304-11.512-51.811-11.512C159.446,104.493,104.493,159.446,104.493,226.993z"/>
	<polygon points="317.928,145.004 324.143,129.843 201.379,180.165 273.821,252.607 	"/>
	<path d="M379.088,74.898l-26.771,65.31c14.433,20.779,23.84,45.296,26.438,71.785h75.231C446.56,98.477,355.509,7.426,241.993,0
		v75.231c26.489,2.598,51.006,12.005,71.785,26.438L379.088,74.898z"/>
	<path d="M349.493,226.993c0-18.508-4.131-36.067-11.512-51.812L290.649,290.65l-115.468,47.331
		c15.745,7.381,33.304,11.512,51.811,11.512C294.54,349.493,349.493,294.54,349.493,226.993z"/>
	<polygon points="129.843,324.143 137.338,321.071 252.607,273.821 180.165,201.379 	"/>
	<path d="M74.898,379.088l26.771-65.31c-14.433-20.779-23.84-45.296-26.438-71.785H0C7.426,355.509,98.477,446.56,211.993,453.986
		v-75.231c-26.489-2.598-51.006-12.005-71.785-26.438L74.898,379.088z"/>
	<path d="M241.993,378.755v75.231c113.516-7.426,204.567-98.477,211.993-211.993h-75.231
		C371.679,314.131,314.131,371.679,241.993,378.755z"/>
	<path d="M211.993,75.231V0C98.477,7.426,7.426,98.477,0,211.993h75.231C82.307,139.855,139.855,82.307,211.993,75.231z"/>
</g>
<g>
</g>
<g>
</g>
<g>
</g>
<g>
</g>
<g>
</g>
<g>
</g>
<g>
</g>
<g>
</g>
<g>
</g>
<g>
</g>
<g>
</g>
<g>
</g>
<g>
</g>
<g>
</g>
<g>
</g>
</svg>
